<?xml version="1.0" encoding="utf-8"?>
<!-- Generator: Adobe Illustrator 24.0.1, SVG Export Plug-In . SVG Version: 6.00 Build 0)  -->
<svg version="1.1" id="图层_1" xmlns="http://www.w3.org/2000/svg" xmlns:xlink="http://www.w3.org/1999/xlink" x="0px" y="0px"
	 viewBox="0 0 178 177.4" style="enable-background:new 0 0 178 177.4;" xml:space="preserve">
<style type="text/css">
	.st0{fill:#69C8AF;}
	.st1{fill:#FEFEFE;}
</style>
<title>logo</title>
<path class="st0" d="M96.6,178.1c-5.9,0-10.1,0.2-14.2,0c-6.1-0.3-12.2-0.6-18.3-0.9c-4.6-0.1-9.2-0.5-13.8-1.1
	c-3.8-0.6-7.7-0.2-11.4-1.4c-1.4-0.4-2.9-0.2-4.4-0.3s-3-0.5-4.5-1c-0.2-0.1-0.3-0.1-0.5-0.1c-3.2,0-6.4-0.5-9.5-1.3
	c-3.1-0.7-6.4-0.1-9.4-1.1c-0.7-0.1-1.1-0.7-1.1-1.4c-0.1-1.8,0.7-3.4,1-5.1c0.6-2.9,1.5-5.8,2.6-8.6c1.2-3.4,2.7-6.7,4.1-10
	c1.1-2.5,2-5,3.2-7.5c0.6-1.3,0.9-2.9,1.5-4.2c0.6-1.6,1.1-3.3,1.4-4.9c0.8-3.8,1.5-7.7,2.3-11.5c0.6-2.9,1.4-5.8,2.4-8.7
	c0.8-2.2,1.3-4.4,2.2-6.5c0.7-1.9,1.5-3.8,2.3-5.6c0.5-1,0.8-2.1,1.3-3.2c1.1-2.3,2.2-4.6,3.2-6.9s2.4-4.5,3.3-6.9
	c0.6-1.4,1.5-2.7,2.1-4.1c1.3-3.3,3.1-6.2,4.4-9.3c0.9-2,2-3.9,3-5.9c1.2-2.4,2.1-4.9,3.4-7.2s2.2-4.7,3.5-6.9
	c0.8-1.4,1.3-3,2.1-4.4c1.6-2.9,2.8-6,4.4-8.9c1.4-2.6,2.5-5.3,3.9-7.9c1.6-3,2.9-6.1,4.5-9.1c1-1.9,1.8-3.9,2.9-5.8
	c1.7-3.1,4.4-5.7,7.6-7.2c1.9-1,4-1.3,6.1-0.8c2.2,0.6,4.1,1.9,5.5,3.7c2.3,3,3.9,6.4,5.7,9.6c1.5,2.6,3.1,5.2,4.3,7.9
	c1,2.2,2.3,4.2,3.2,6.5s2.1,4.5,3.2,6.7c0.9,1.6,1.6,3.2,2.2,4.9c0.3,0.6,0.6,1.2,1,1.7c1.8,3.6,3.5,7.3,5.3,10.9
	c1.2,2.3,2.2,4.6,3.2,6.9c0.5,1.5,1.5,2.9,2.1,4.4c1.2,2.4,2.1,5,2.6,7.6c0.4,3,0.8,6.2,2.7,8.8c1.2,1.6,2.5,3.1,3.9,4.5
	c2.9,3.3,5.3,6.9,7.3,10.8c1.2,2.3,2.1,4.7,3.4,7c1,1.7,1.3,3.8,2.1,5.7c1,2,1.4,4.2,2.4,6.3c0.5,1.1,0.9,2.5,1.3,3.8
	c0.7,2,1.6,4,2.3,6.1c0.9,2.5,2.1,4.7,3.2,7.1c1,2,2.1,4,3.4,5.9c2.1,3.5,4.2,7,6.2,10.5c1.4,2.6,2.9,5.3,4.1,8c1,2,1.7,4.1,2.4,6.3
	c0.6,2.1,1,4.3,1.6,6.4c0.2,0.8,0,1.2-0.8,1.1c-1.9-0.1-3.7,0.9-5.5,0.9c-2.5,0-4.9,1.2-7.4,1c-0.8,0.1-1.6,0.3-2.4,0.6
	c-4.5,0.7-8.9,1.3-13.4,1.6c-2.8,0.2-5.6,0.9-8.5,0.9c-2.3,0-4.6,0.4-6.9,0.6c-4.9,0.4-9.8,0.1-14.7,0.7
	C106.9,178.4,100.9,177.9,96.6,178.1z"/>
<path class="st1" d="M113.8,51.3c1.4,2.7,2.8,5.4,4,8.2c1,2.2,2.3,4.4,3.3,6.6c1.3,2.7,2.1,5.5,2.4,8.5c0.2,1.6,0.6,3.2,1.3,4.7
	c1.6,4.1,4.8,6.9,7.3,10.3c2,2.5,3.7,5.2,5.2,8c1.1,2.3,2.4,4.7,3.3,7.1c0.8,2.2,1.8,4.3,2.4,6.6c0.6,2.1,1.3,4.1,2.2,6
	c0.4,1,0.7,2,1,3c0.9,2.8,2,5.5,3.1,8.1c1.9,4.5,4.3,8.9,6.9,13c2.1,3.1,4,6.3,5.7,9.6s3.2,6.6,4.7,9.9c0.7,1.7,1.2,3.4,1.6,5.2
	c0.2,0.7-0.5,0.6-0.8,0.6c-2,0.2-3.9,1-5.9,1.4c-3.1,0.6-6.2,1-9.4,1.4s-6.1,1.2-9.2,1.1c-2.3-0.1-4.6,0.8-6.9,0.8
	c-5.2,0.1-10.2,1.1-15.4,1.1c-2.7,0-5.4,0.3-8.1,0.8c-0.6,0.1-1.2,0.2-1.9,0.2c-11.3,0-22.5,0-33.8,0c-2.5,0-4.9-0.2-7.3-0.6
	c-2.3-0.3-4.5-0.4-6.8-0.4c-4.4-0.2-8.7-1-13.1-1c-3.4-0.1-6.8-0.6-10.1-1s-7-0.3-10.3-1.4c-0.8-0.2-1.6-0.3-2.4-0.2
	c-2.6,0.1-5-1-7.5-1.1c-1.8-0.1-3.5-1-5.3-1.2c-0.6-0.1-0.4-0.6-0.5-1c-0.1-1.3,0.5-2.4,0.8-3.6c0.7-2.8,1.6-5.5,2.7-8.1
	c1-2.6,2.2-5.2,3.3-7.8c0.7-1.8,1.5-3.6,2.3-5.3c0.8-1.8,1.5-3.6,2-5.4c0.7-2.1,1.4-4.3,1.9-6.4c0.8-3.6,1.4-7.2,2.1-10.7
	c0.6-2.9,1.4-5.7,2.3-8.6c0.8-2.1,1.3-4.3,2.2-6.4s1.4-4,2.4-5.9c0.9-1.7,1.5-3.5,2.3-5.2c1-2.2,2.2-4.3,3.1-6.5
	c0.8-1.9,2-3.5,2.6-5.5c0.5-1.4,1.5-2.7,2.1-4.1c1-2.4,2.5-4.4,3.3-6.9c0.7-1.5,1.4-2.9,2.3-4.3c0.9-1.8,1.9-3.6,2.7-5.5
	c0.5-1.4,1.2-2.7,2-4c0.4-0.5,0.7-1.2,0.6-1.9c0.7,0.5,0.5,1,0.6,1.5c0.1,3.1-0.4,6.3-0.3,9.4c0.1,1.7,0.3,2,1.8,1
	c2.1-1.4,4.2-2.9,6.2-4.4c2.8-2.1,5.6-4.3,8.3-6.5c0.4-0.3,0.7-0.8,1.1-1.2c1.1-0.9,1.8-0.7,2.3,0.6c1,2.9,2.8,5.3,4.3,7.9
	s2.9,4.9,4.4,7.3c0.1,0.3,0.3,0.5,0.5,0.8c0.3,0.3,0.5,0.8,1.1,0.7s0.5-0.6,0.6-1c1.1-2.3,2.2-4.5,3.2-6.8c0.7-1.6,1.5-3.2,2.2-4.8
	s1.6-2.8,2-4.4c0.2-0.7,1-0.5,1.4,0c1.4,1.9,3.6,2.9,5.1,4.7c2.1,2.4,4.9,4,7.1,6.3c0.6,0.6,1.3,1.1,2.1,1.5c0.9,0.5,1.5,0,1.8-1
	c1.3-4.2,1-8.5,1.1-12.8C113.4,51.9,113.5,51.5,113.8,51.3z"/>
<path class="st1" d="M109.6,55.2c0,1.9,0,3.3,0,4.7c0,0.3,0.1,0.8-0.3,1s-0.8-0.1-1.1-0.3c-1.9-1.7-3.7-3.3-5.6-5
	c-2.3-2.1-4.7-4-7.2-5.8c-0.6-0.6-1.6-0.5-2.1,0.1c-0.1,0.1-0.2,0.3-0.3,0.4c-1.5,2.6-3.1,5.2-4.6,7.8c-0.8,1.4-1.4,2.9-2,4.5
	c-0.4,1.1-0.9,0.8-1.2,0.2c-1.1-1.8-2.1-3.7-3-5.6s-1.7-3.7-2.4-5.6c-0.4-1-0.4-2.1-1.2-3c-0.4-0.5-0.7-0.8-1.5-0.3
	c-3,1.7-5.2,4.3-7.8,6.3c-2.1,1.6-4,3.6-6.2,5.1c-0.3,0.2-0.7,0.6-1.1,0.4s-0.3-0.7-0.3-1.1c-0.1-2.6,0.1-5.3,0.7-7.9
	c0.1-0.8,0.2-1.6,0.1-2.4c0.2-2,0.6-3.9,1.2-5.7c0.8-2.3,1.8-4.4,3-6.5c1.4-2.9,2.8-5.8,4.3-8.7c1.2-2.2,2.3-4.4,3.4-6.7
	c0.9-2.1,2-4.1,3.1-6.1c1.1-2.3,2.7-4.4,4.7-5.9c2.6-1.8,6.8-2.2,9.2,1.2c2.3,3.4,4.3,7,6.2,10.6c1.2,2.2,2.5,4.3,3.5,6.6
	c1.2,2.8,3,5.4,4.1,8.3c0.5,1.2,1.1,2.4,1.8,3.5c0.9,1.6,1.4,3.4,1.5,5.2C108.9,48.3,110.1,51.9,109.6,55.2z"/>
</svg>
